<svg xmlns="http://www.w3.org/2000/svg" viewBox="0 0 165 165"><defs><style>.cls-1{fill:#0023e5;}.cls-2{fill:#0057e5;}</style></defs><title>planet3</title><g id="Layer_2" data-name="Layer 2"><path class="cls-1" d="M733,430c10.11-13.9,12.63-31,12.36-48.51a82.8,82.8,0,0,0-43.2-45.31C667.22,356.3,629.4,371.94,590.72,384A82.52,82.52,0,0,0,630.1,484.53C669.94,475.87,708.34,464.87,733,430Z" transform="translate(-586 -329)"/><path class="cls-2" d="M745.36,381.49C745.63,399,743.11,416.1,733,430c-24.66,34.87-63.06,45.87-102.9,54.53a82,82,0,0,0,34.56,9.38c1.28.06,2.55.09,3.84.09a82.53,82.53,0,0,0,76.86-112.51Z" transform="translate(-586 -329)"/><path class="cls-2" d="M590.72,384c38.68-12.05,76.5-27.69,111.44-47.81A82.5,82.5,0,0,0,590.72,384Z" transform="translate(-586 -329)"/></g></svg>