<svg xmlns="http://www.w3.org/2000/svg" viewBox="0 0 422.6 274"><defs><style>.cls-1{fill:#ff8105;}.cls-2{fill:#7f2d00;}</style></defs><title>planet1</title><g id="Layer_1" data-name="Layer 1"><circle class="cls-1" cx="215.4" cy="137" r="137"/></g><g id="Layer_2" data-name="Layer 2"><path class="cls-2" d="M908.05,360.53a18.75,18.75,0,0,1-.95,8.63,27.66,27.66,0,0,1-3.82,7,54,54,0,0,1-10.48,10.41,143,143,0,0,1-24.09,14.71c-16.7,8.29-34.06,14.75-51.59,20.52s-35.34,10.65-53.27,15-36,8.08-54.21,11.23c-36.41,6.22-73.3,10.39-110.7,10.53-9.35,0-18.73-.19-28.16-.85a278.73,278.73,0,0,1-28.44-3.21c-4.77-.83-9.57-1.78-14.4-3a111.35,111.35,0,0,1-14.66-4.68,63,63,0,0,1-15.12-8.37,36.85,36.85,0,0,1-7.46-7.66,26.66,26.66,0,0,1-3.45-25,37.32,37.32,0,0,1,5.11-9.39,63.07,63.07,0,0,1,12.3-12.15,112.24,112.24,0,0,1,12.84-8.47c4.32-2.5,8.68-4.71,13-6.8a280.67,280.67,0,0,1,26.51-10.79c8.9-3.18,17.88-5.9,26.89-8.43,36-10,72.68-15.95,109.41-19.81q27.55-2.85,55.23-3.86c18.43-.67,36.89-.74,55.34,0s36.89,2.33,55.21,5.8a143.2,143.2,0,0,1,27.17,7.63,54.52,54.52,0,0,1,12.91,7.2,27.45,27.45,0,0,1,5.58,5.74A18.75,18.75,0,0,1,908.05,360.53Zm-7.93,1.09a10.72,10.72,0,0,0-1.89-4.51,19.87,19.87,0,0,0-4-4,46.51,46.51,0,0,0-11-6,94.86,94.86,0,0,0-12.54-4c-4.3-1.09-8.68-2-13.09-2.72a259.63,259.63,0,0,0-26.8-3c-9-.63-18-.8-27.08-.79-36.2.15-72.36,4.25-108,10.37q-26.75,4.63-53,11c-17.51,4.25-34.84,9.07-51.81,14.62s-33.63,11.84-49,19.52A125.57,125.57,0,0,0,520.76,405a37.46,37.46,0,0,0-7.17,7,11,11,0,0,0-1.47,2.58c-.17.57-.08.6-.12.55s-.06,0,.27.5a11,11,0,0,0,2.1,2.08,37.79,37.79,0,0,0,8.81,4.82,127,127,0,0,0,23.74,6.64c16.91,3.22,34.69,4.73,52.49,5.52s35.83.7,53.83.06,36-1.89,54-3.74c36-3.75,71.89-9.59,106.78-19.24,8.71-2.44,17.37-5.05,25.87-8.08a262.58,262.58,0,0,0,25-10.14c4-1.92,8-4,11.86-6.16a95.24,95.24,0,0,0,11-7.22,46.69,46.69,0,0,0,9-8.75,20,20,0,0,0,2.76-4.93A10.75,10.75,0,0,0,900.12,361.62Z" transform="translate(-485.6 -246)"/></g><g id="Layer_3" data-name="Layer 3"><path class="cls-1" d="M701,246A137,137,0,0,0,564,382.18c28.72,2.24,65.4-9.52,83,18.82v-5c58-2,116,2,173,14v-9c12,1,12-16,17-24,0,2,0,5,1,7,0-.32,0-.65,0-1A137,137,0,0,0,701,246Z" transform="translate(-485.6 -246)"/></g></svg>